<svg width="390" height="100" viewBox="0 0 390 100" xmlns="http://www.w3.org/2000/svg"><title>cu-logo-white</title><g fill="none"><g fill="#FFF"><path d="M72.88 67.802c.23-.6.446-1.207.646-1.82 1.617-4.776 2.42-9.858 2.376-15.185 0 0-.028-32.59-.138-44.058-.948-.273-1.93-.53-2.925-.78-.863-.23-1.86-.464-2.973-.697-9.442-2.065-20.393-3.184-29.623-3.455l.022.045a54.463 54.463 0 0 0-2.886.022l.06-.12c-10.506-.048-23.258 1.71-33.466 4.41-.93.216-1.645.41-2.08.574-.022 2.35-.04 5.593-.058 9.256-.078 15.983-.08 34.8-.08 34.8C1.696 58.125 3.218 64.99 6.3 71.22c.234.48.48.96.735 1.433.073.135.135.274.21.41l.003-.016c.353.64.72 1.276 1.113 1.905l.02.03c.672 1.077 1.4 2.14 2.193 3.19.412.535.83 1.057 1.253 1.567.313.378.634.746.956 1.114.1.114.196.233.296.346 5.93 6.695 13.076 11.61 20.97 15.1.3.146.594.294.897.438.022.012.27.096.63.217.713.293 1.6.55 2.398.8l.855.285c.953-.346 2.29-.686 3.27-1.092l.637-.212c.608-.283 1.202-.566 1.79-.85a63.177 63.177 0 0 0 10.403-6.01c.06-.04.116-.082.174-.124.274-.198.55-.394.822-.598 4.175-3.066 7.767-6.584 11.16-10.982 2.508-3.324 4.377-6.68 5.742-10.225.02-.047.036-.095.055-.145z"/><path d="M38.853 99.897l-1.837-.602c-.693-.214-1.41-.435-2.05-.695-.64-.214-.68-.232-.795-.288l-.89-.435c-8.455-3.737-15.715-8.966-21.515-15.515l-.305-.355c-.358-.412-.675-.775-.985-1.15a58.75 58.75 0 0 1-1.29-1.613 45.67 45.67 0 0 1-1.2-1.666l-.07.293-2.205-3.958c-.053-.095-.1-.192-.15-.288l-.068-.136a42.52 42.52 0 0 1-.77-1.5C1.528 65.53-.06 58.392.002 50.78c0-.172.002-18.99.08-34.793.016-3.666.036-6.913.058-9.265l.012-1.2 1.124-.425c.502-.188 1.256-.4 2.303-.64C13.945 1.712 26.78 0 37.02 0l3.254.014-.02.04h.042C50.55.356 61.466 1.63 70.243 3.55c1.133.237 2.166.48 3.052.717.986.245 1.988.508 2.955.786l1.257.36.012 1.308c.108 11.345.136 43.748.137 44.074.045 5.475-.786 10.78-2.468 15.75-.203.622-.43 1.255-.667 1.882l-.068.175c-1.434 3.725-3.39 7.21-5.97 10.628-3.497 4.533-7.155 8.132-11.523 11.34-.235.175-.483.354-.73.533l-.296.212c-3.262 2.333-6.86 4.41-10.678 6.166-.562.274-1.165.56-1.782.846l-.183.073-.58.195c-.635.258-1.346.477-2.032.69-.446.137-.88.27-1.25.405l-.577.21zm-3.22-4.776c.097.035.275.095.5.17l.11.04c.51.21 1.17.415 1.808.612l.77.246c.263-.086.54-.172.823-.26.632-.195 1.287-.397 1.786-.603l.655-.223a126.2 126.2 0 0 0 1.673-.796c3.65-1.678 7.054-3.644 10.15-5.857l.272-.197c.232-.166.464-.334.694-.505 4.107-3.016 7.542-6.397 10.82-10.648 2.37-3.14 4.17-6.345 5.495-9.783l1.673.535-1.64-.623c.238-.628.444-1.207.636-1.793 1.56-4.618 2.33-9.533 2.287-14.627 0-.327-.027-30.407-.126-42.735-.528-.14-1.065-.278-1.605-.414a54.673 54.673 0 0 0-2.907-.682c-8.206-1.795-18.322-3.01-27.972-3.374H40.24c-.357-.006-.705-.01-1.04-.01l-.36.002c-.45.005-.922.016-1.405.03l-2.94.092.092-.18c-9.505.244-20.826 1.853-30.164 4.324-.305.07-.565.134-.786.19-.02 2.186-.034 4.925-.048 7.95C3.51 31.8 3.51 50.61 3.51 50.797c-.057 7.07 1.41 13.676 4.362 19.646.23.47.463.926.708 1.38.028.052.055.104.082.16l.122.218c.376.68.725 1.277 1.066 1.824l.063.104a43.391 43.391 0 0 0 2.06 2.988c.39.503.795 1.01 1.205 1.505.29.352.59.693.886 1.035l.33.384c5.462 6.165 12.315 11.097 20.365 14.656l.872.425z"/></g><g fill="#FFF"><path d="M38.827 98.04l3.907-1.304c10.67-4.95 17.86-10.154 24.35-18.562 6.146-8.147 8.508-16.466 8.817-27.377 0 0-.146-35.237-.21-43.824-3.782-2.162-26.534-5.22-36.868-5.128"/><path d="M39.382 99.704l-1.11-3.33 3.812-1.272c10.766-5.007 17.61-10.227 23.61-18 5.608-7.435 8.14-15.32 8.453-26.355-.002-.277-.136-32.48-.202-42.63-5.14-1.81-24.992-4.635-35.106-4.518L38.806.09c10.37-.094 33.52 2.94 37.755 5.36l.876.5.008 1.01c.063 8.28.21 43.678.21 43.836-.335 11.87-3.077 20.357-9.17 28.433-6.4 8.292-13.642 13.82-25.012 19.096l-.183.073-3.908 1.304z"/></g><g fill="#FFF"><path d="M38.823 1.845c-11.062.1-33.348 3.55-36.928 4.894-.137 16.762-.14 44.056-.14 44.056.267 10.418 2.678 19.24 8.818 27.377 6.494 8.42 14.23 13.71 24.372 18.565.092.043 3.883 1.3 3.883 1.3"/><path d="M38.274 99.705c-3.892-1.293-3.96-1.325-4.082-1.382-11.44-5.475-18.917-11.18-25.01-19.078C3.21 71.325.296 62.305.003 50.84c0-.316.002-27.537.137-44.115L.15 5.52l1.126-.423C5.38 3.557 27.903.187 38.806.09l.033 3.51c-9.896.088-29.553 3.006-35.2 4.447-.127 16.646-.13 42.484-.13 42.75.277 10.798 2.887 18.928 8.463 26.32 5.786 7.5 12.646 12.726 23.652 18 .412.145 2.477.833 3.755 1.257l-1.106 3.33z"/></g><path d="M151.25 22.567h-2.426c-.31-11.882-5.09-17.374-16.16-17.374-15.92 0-18.103 13.818-18.103 27.314 0 11.393 1.294 27.394 16.728 27.394 11.233 0 17.15-7.728 17.455-19.233h2.424v16c-7.273 3.96-13.576 5.738-20.122 5.738-17.535 0-27.15-12.524-27.15-29.898 0-17.213 10.746-29.82 28.282-29.82 6.384 0 13.172 1.94 19.07 4.688v15.192h.002zm18.338 15.513c3.313-.806 5.82-1.534 8.89-2.584v-3.393c0-5.577-.97-9.213-6.304-9.213-4.04 0-6.507 1.212-6.507 6.545 0 3.153-1.212 4.624-4.04 4.624-2.1 0-3.998-.988-3.998-3.414 0-7.757 7.838-9.777 14.302-9.777 12.363 0 14.788 5.09 14.788 11.797v20.526c0 6.142 1.86 6.224 6.383 6.224v2.02h-6.14c-4.527 0-7.678-.405-8.97-5.253-3.153 4.848-7.112 6.222-12.446 6.222-8.404 0-11.07-4.364-11.07-11.717 0-6.708 3.474-9.86 10.26-11.475l4.85-1.134zm.485 2.183c-4.848 1.454-6.383 3.233-6.383 10.344 0 4.93.89 9.293 5.253 9.293 7.03 0 9.535-8.89 9.535-14.383v-7.76l-8.405 2.506z" fill="#FFF"/><path d="M198.834 23.86h-6.95v-2.02h15.19v9.292h.164c1.696-4.687 5.17-10.263 11.312-10.263 4.77 0 7.355 3.07 7.355 7.757 0 3.233-1.293 5.415-4.203 5.415-2.18 0-4.04-1.618-4.04-4.122 0-1.13.404-3.07.404-4.12 0-1.132-.81-2.02-2.02-2.02-4.203 0-8.97 9.212-8.97 17.938v17.7h6.707v2.02h-21.785v-2.02h6.835V23.86z" fill="#FFF"/><path fill="#FFF" d="M223.526 3.657h15.192v55.76h6.95v2.02h-22.142v-2.02h6.95V5.676h-6.95"/><path d="M253 39.13v.65c0 11.31 1.536 20.12 11.96 20.12 7.354 0 11.072-4.525 13.173-10.343l1.778.646c-3.474 9.374-8.97 12.2-17.86 12.2-12.12 0-18.26-9.372-18.26-20.766 0-10.91 7.03-20.77 18.827-20.77 10.345 0 17.374 7.436 17.374 18.264H253zm17.294-2.503c0-5.818-.324-13.737-8.566-13.737-6.95 0-8.728 8.727-8.728 13.737h17.294zm9.796-14.787h5.574V11.092h8.242V21.84h8.97v2.02h-8.97v28.12c0 4.77.97 7.032 4.284 7.032 3.07 0 4.364-2.262 5.656-4.85l1.858.81-.727 1.453c-1.616 2.91-4.365 5.497-10.18 5.497-8.406 0-9.133-4.768-9.133-9.94V23.86h-5.575v-2.02z" fill="#FFF"/><path d="M323.65 20.87c14.383 0 18.828 12.605 18.828 20.768 0 8.16-4.445 20.767-18.828 20.767S304.82 49.8 304.82 41.638c0-8.163 4.446-20.77 18.83-20.77zm0 39.515c9.535 0 9.616-10.262 9.616-18.747s-.08-18.748-9.616-18.748-9.616 10.263-9.616 18.748c0 8.485.08 18.747 9.616 18.747z" fill="#FFF"/><path d="M349.37 59.416V23.86h-6.95v-2.02h15.19v7.594h.164c2.504-5.495 7.353-8.566 13.98-8.566 7.92 0 11.878 3.314 11.878 11.394v27.153h6.385v2.02h-21.01v-2.02h6.383V32.667c0-4.443-.81-8.89-6.465-8.89-7.514 0-11.313 7.112-11.313 14.628v21.01h6.384v2.02H342.42v-2.02h6.95zM127.658 89.875c0 4.183-2.81 7.288-8.21 7.288-5.426 0-8.236-3.105-8.236-7.288V78.98h4.297v10.745c0 2.178 1.653 3.832 3.94 3.832 2.258 0 3.91-1.654 3.91-3.832V78.98h4.298v10.895zM144.02 78.98h5.84l8.293 12.322h.055v-12.32h4.3v17.73h-5.622l-8.514-12.622h-.054v12.623h-4.297V78.98m34.929 0h4.297v17.733h-4.297m18.537-17.733h4.905l4.82 11.622h.055l4.904-11.62h4.603l-8.045 17.73h-3.443m24.292-17.732h13.25v3.608h-8.952v3.306h8.458V89.5h-8.458v3.607h9.45v3.605h-13.75v-17.73m29.861-.002h7.548c3.996 0 7.356 1.253 7.356 5.386 0 2.48-1.46 4.407-4.215 4.858l4.96 7.49h-5.152l-4.078-7.09h-2.12v7.09h-4.298V78.98zm4.297 7.338h2.535c1.57 0 3.608-.05 3.608-1.978 0-1.776-1.765-2.052-3.333-2.052h-2.81v4.03zm36.832-3.004c-.69-.8-2.066-1.176-3.113-1.176-1.212 0-2.894.5-2.894 1.828 0 3.23 8.98 1.15 8.98 7.363 0 3.957-3.498 5.833-7.52 5.833-2.507 0-4.71-.675-6.557-2.228l3.057-3.055c.883 1.052 2.314 1.678 3.747 1.678 1.406 0 2.975-.6 2.975-1.854 0-3.254-9.145-1.502-9.145-7.412 0-3.783 3.608-5.76 7.437-5.76 2.204 0 4.325.526 5.978 1.853l-2.946 2.93zm18.924-4.334h4.3v17.733h-4.3m24.24-14.275h-5.566v-3.456h15.43v3.456h-5.567v14.275h-4.296V82.438m28.951 6.712l-7.328-10.17h5.345l4.132 6.637 4.38-6.636h5.098l-7.33 10.17v7.563h-4.297V89.15" fill="#FFF"/><path d="M63.357 51.103l-.933-.304-.203-.976-1.603-.627c-4.365-1.517-8.84-2.74-13.462-3.18-2.976-.286-5.99-.063-8.276 1.41-2.28-1.474-5.292-1.696-8.27-1.41-4.62.44-9.103 1.662-13.475 3.18l-1.604.627-.206.975-.935.303L9.16 72.94c2.95-.542 9.024-1.423 12.39-1.773 4.186-.467 7.753-.643 12.48-.485-.02.19-.076.348.042.536.548.525 1.652.475 2.533.554.917.036 1.324.05 2.226.057.9.005 1.312-.022 2.226-.058.882-.08 1.987-.03 2.537-.554.117-.19.064-.347.043-.536 4.73-.16 8.296.018 12.48.485 3.364.35 9.434 1.23 12.382 1.773l-5.14-21.837zM38.247 67.54c-2.434-1.304-5.47-1.5-8.43-1.333-6.32.406-12 1.795-17.95 3.822l4.552-19.754c4.568-1.738 9.37-3.12 14.335-3.538 3.253-.2 6.05.21 7.66 1.367l-.168 19.435zm9.62-1.332c-2.957-.167-5.996.028-8.436 1.333l-.087-19.433c1.613-1.156 4.415-1.566 7.666-1.368 4.964.42 9.758 1.8 14.322 3.538l4.47 19.753c-5.94-2.028-11.617-3.417-17.936-3.822z" fill="#000"/><path d="M40.244 1.808l5.188 10.43.015.036c.02.044.09.185.275.508.174-.066.34-.134.51-.203l8.69-4.944L50.81 27.84c1.66-1.75 8.39-8.83 8.39-8.83l3.53 6.715.92-.154-.457.077 10.312-2.835-3.28 11.574s-.044.076-.06.098l.007.004-.043.133c0-.003.03-.045.03-.045s-.27.817-.393 1.182c-.048.15-.162.517-.193.61l5.28 2.725-10.97 9.725.118.566.904.297 5.5 23.384c3.736-6.71 5.56-14.215 5.494-22.268 0 0-.028-32.59-.138-44.058-10.503-3.02-24.288-4.6-35.518-4.93m-1.416 96.23c.972-.352 2.35-.7 3.337-1.117 9.63-4 18.206-10.045 24.92-18.75a44.844 44.844 0 0 0 2.21-3.22l-1.13-.208c-3.033-.557-9.096-1.426-12.254-1.755a119.46 119.46 0 0 0-2.228-.224h-.013c-.342-.03-.676-.058-1.01-.084l-.08-.007c-.342-.025-.68-.05-1.017-.07a75.884 75.884 0 0 0-6.64-.12l-.064.06c-.935.893-2.233.968-3.182 1.023l-.527.035-.536.023-1.8.04-2.282-.06-.55-.038c-.95-.055-2.248-.13-3.18-1.025l-.062-.06a79.154 79.154 0 0 0-5.655.067c-.424.02-.848.046-1.278.074l-.024.002c-.208.014-.416.027-.626.044-.014 0-.027.003-.04.004a32.995 32.995 0 0 0-.714.058c-.186.015-.374.03-.565.048l-.184.018c-.165.015-.33.03-.497.047l-.322.03-.376.04-.72.077c-3.153.328-9.217 1.197-12.246 1.754l-1.134.206a44.128 44.128 0 0 0 2.213 3.22c6.714 8.705 15.29 14.75 24.917 18.75.988.42 2.367.765 3.337 1.118M37.44 1.755c-11.23-.05-25.03 1.96-35.544 4.985-.113 11.466-.14 44.056-.14 44.056-.066 8.054 1.758 15.556 5.49 22.266l5.598-23.385.906-.295.104-.493-11.05-9.798 5.278-2.724-.22-.692-.296-.895-.032-.038-3.38-11.93 10.312 2.834-.448-.073c.09.016.8.132.912.152l3.53-6.715 8.388 8.826-4.114-20.2 8.695 4.943c.166.068.333.136.506.202.193-.337.258-.47.272-.5l.017-.04 4.613-9.27.603-1.217" fill="#000"/><path d="M10.385 36.733c-.038.548-.55 1.17-.846 1.388l-2.83 1.46 9.175 8.135.615-.24.033-.01c5.282-1.836 9.7-2.877 13.905-3.277 3.457-.33 6.23.05 8.442 1.143 2.218-1.092 4.993-1.47 8.45-1.142 4.202.4 8.616 1.442 13.89 3.276l.033.012.548.213 9.147-8.11-2.83-1.46c-.293-.217-.808-.84-.844-1.387-.012-.163-.03-.145-.046-.097l.008-.047c.053-.324 0-.257.295-1.132-.024.023.54-1.666.553-1.68l2.203-7.772-6.503 1.788c-.356.02-.685.146-1.035.196-.61.087-1.1.17-1.465-.233l-2.61-4.962-7.423 7.808-.59.585c-1.25.95-3.014-.074-2.242-2.774l3.344-16.422-4.554 2.59c-.614.256-1.142.466-1.985.73-.28.088-.557-.092-.745-.268-.325-.53-.87-1.437-1.06-1.848L38.83 3.962l-4.595 9.234c-.185.412-.732 1.317-1.056 1.847-.188.176-.468.356-.746.27a21.185 21.185 0 0 1-1.985-.73l-4.558-2.59 3.344 16.42c.77 2.7-.993 3.724-2.242 2.775l-.587-.585-7.423-7.808-2.61 4.962c-.367.402-.858.32-1.465.233-.35-.05-.678-.174-1.035-.196l-6.503-1.788 2.202 7.772c.015.014.58 1.703.552 1.68.294.875.242.808.294 1.13l.006.038c-.013-.04-.03-.045-.04.107zm34.024-21.76c-.19-.197-.237-.34 0 0zm-11.16 0c.235-.337.188-.197 0 0z" fill="#AA1F23"/><path d="M35.746 52.93c-2.597-1.1-5.61-.762-8.355-.286-3.24.56-4.745.97-8.314 2.164l.2-.89s4.496-1.75 10.565-2.46c0 0 3.49-.44 5.905.63v.843zm0 3.93c-2.597-1.1-5.61-.762-8.355-.287-3.24.562-5.562.92-9.237 2.143l.2-.89s5.42-1.73 11.49-2.438c0 0 3.49-.44 5.903.63v.842zm0 3.98c-2.597-1.1-5.61-.76-8.355-.286-3.24.56-6.53 1.428-10.253 2.674l.2-.89s6.435-2.26 12.505-2.97c0 0 3.49-.44 5.904.628v.845zm6.072-7.91c2.597-1.1 5.61-.762 8.354-.286 3.24.56 4.746.97 8.315 2.164l-.2-.89s-4.496-1.75-10.565-2.46c0 0-3.49-.44-5.904.63v.843zm0 3.93c2.597-1.1 5.61-.762 8.354-.287 3.24.562 5.563.92 9.238 2.143l-.2-.89s-5.418-1.73-11.488-2.438c0 0-3.49-.44-5.904.63v.842zm0 3.98c2.597-1.1 5.61-.76 8.354-.286 3.24.56 6.533 1.428 10.253 2.674l-.2-.89s-6.434-2.26-12.504-2.97c0 0-3.49-.44-5.903.628v.845z" fill="#000"/></g></svg>