<?xml version="1.0" encoding="UTF-8" standalone="no"?>
<svg
   xmlns:dc="http://purl.org/dc/elements/1.1/"
   xmlns:cc="http://creativecommons.org/ns#"
   xmlns:rdf="http://www.w3.org/1999/02/22-rdf-syntax-ns#"
   xmlns:svg="http://www.w3.org/2000/svg"
   xmlns="http://www.w3.org/2000/svg"
   xmlns:sodipodi="http://sodipodi.sourceforge.net/DTD/sodipodi-0.dtd"
   xmlns:inkscape="http://www.inkscape.org/namespaces/inkscape"
   width="24"
   height="24"
   viewbox="0 0 24 24"
   version="1.1"
   id="svg4"
   sodipodi:docname="instagram.svg"
   inkscape:version="0.92.1 r15371">
  <metadata
     id="metadata10">
    <rdf:RDF>
      <cc:Work
         rdf:about="">
        <dc:format>image/svg+xml</dc:format>
        <dc:type
           rdf:resource="http://purl.org/dc/dcmitype/StillImage" />
      </cc:Work>
    </rdf:RDF>
  </metadata>
  <defs
     id="defs8" />
  <sodipodi:namedview
     pagecolor="#ffffff"
     bordercolor="#666666"
     borderopacity="1"
     objecttolerance="10"
     gridtolerance="10"
     guidetolerance="10"
     inkscape:pageopacity="0"
     inkscape:pageshadow="2"
     inkscape:window-width="724"
     inkscape:window-height="480"
     id="namedview6"
     showgrid="false"
     inkscape:zoom="9.8333333"
     inkscape:cx="12"
     inkscape:cy="12"
     inkscape:window-x="0"
     inkscape:window-y="0"
     inkscape:window-maximized="0"
     inkscape:current-layer="svg4" />
  <path
     d="M22.29 5.343a.922.922 0 0 1-.922.92h-2.762a.921.921 0 0 1-.921-.92V2.579a.92.92 0 0 1 .92-.92h2.763c.51 0 .922.412.922.92v2.764zm-.184 15.735c0 .568-.458 1.028-1.024 1.028h-18.4c-.566 0-1.024-.46-1.024-1.028V9.764h2.315a8.27 8.27 0 0 0-.269 2.057c0 4.545 3.662 8.229 8.178 8.229 4.517 0 8.178-3.684 8.178-8.229 0-.71-.1-1.399-.268-2.057h2.314v11.314zM12.066 5.527a6.539 6.539 0 1 1 0 13.079 6.54 6.54 0 0 1 0-13.08zM21.186 0H2.763A2.763 2.763 0 0 0 0 2.763v18.421a2.763 2.763 0 0 0 2.763 2.764h18.422a2.763 2.763 0 0 0 2.763-2.764V2.764A2.762 2.762 0 0 0 21.185 0z"
     id="path2"
     style="fill:#ffffff;fill-opacity:1" />
</svg>
