<?xml version="1.0" encoding="UTF-8" standalone="no"?>
<svg
   xmlns:dc="http://purl.org/dc/elements/1.1/"
   xmlns:cc="http://creativecommons.org/ns#"
   xmlns:rdf="http://www.w3.org/1999/02/22-rdf-syntax-ns#"
   xmlns:svg="http://www.w3.org/2000/svg"
   xmlns="http://www.w3.org/2000/svg"
   xmlns:sodipodi="http://sodipodi.sourceforge.net/DTD/sodipodi-0.dtd"
   xmlns:inkscape="http://www.inkscape.org/namespaces/inkscape"
   viewBox="0 0 126 126"
   version="1.1"
   id="svg8"
   sodipodi:docname="youtube.svg"
   inkscape:version="0.92.1 r15371">
  <metadata
     id="metadata14">
    <rdf:RDF>
      <cc:Work
         rdf:about="">
        <dc:format>image/svg+xml</dc:format>
        <dc:type
           rdf:resource="http://purl.org/dc/dcmitype/StillImage" />
      </cc:Work>
    </rdf:RDF>
  </metadata>
  <defs
     id="defs12" />
  <sodipodi:namedview
     pagecolor="#ffffff"
     bordercolor="#666666"
     borderopacity="1"
     objecttolerance="10"
     gridtolerance="10"
     guidetolerance="10"
     inkscape:pageopacity="0"
     inkscape:pageshadow="2"
     inkscape:window-width="724"
     inkscape:window-height="480"
     id="namedview10"
     showgrid="false"
     inkscape:zoom="1.8730159"
     inkscape:cx="63"
     inkscape:cy="63"
     inkscape:window-x="0"
     inkscape:window-y="0"
     inkscape:window-maximized="0"
     inkscape:current-layer="g6" />
  <g
     fill="none"
     fill-rule="nonzero"
     id="g6">
    <path
       d="M 63 19 C 63 19 23.599437 19.000391 13.773438 21.650391 C 8.3524375 23.109391 4.0828125 27.404328 2.6328125 32.861328 C -0.0001875 42.751328 0 63.386719 0 63.386719 C 0 63.386719 -0.0001875 84.019156 2.6328125 93.910156 C 4.0828125 99.366156 8.3524375 103.66405 13.773438 105.12305 C 23.599438 107.77305 63 107.77344 63 107.77344 C 63 107.77344 102.40056 107.77305 112.22656 105.12305 C 117.64856 103.66405 121.91719 99.366156 123.36719 93.910156 C 126.00019 84.020156 126 63.386719 126 63.386719 C 126 63.386719 126.00019 42.751328 123.36719 32.861328 C 121.91719 27.404328 117.64856 23.109391 112.22656 21.650391 C 102.40056 19.000391 63 19 63 19 z M 50.113281 44.652344 L 83.044922 63.386719 L 50.113281 82.121094 L 50.113281 44.652344 z "
       id="path2"
       style="fill:#ffffff" />
  </g>
</svg>
